<svg width="50" height="50" viewBox="0 0 50 50" fill="none" xmlns="http://www.w3.org/2000/svg">
<path d="M17.1875 17.1875V13.2812C17.1875 12.2452 17.5991 11.2517 18.3316 10.5191C19.0642 9.78655 20.0577 9.375 21.0938 9.375H41.4062C42.4423 9.375 43.4358 9.78655 44.1684 10.5191C44.9009 11.2517 45.3125 12.2452 45.3125 13.2812V36.7188C45.3125 37.7548 44.9009 38.7483 44.1684 39.4809C43.4358 40.2134 42.4423 40.625 41.4062 40.625H21.0938C20.0577 40.625 19.0642 40.2134 18.3316 39.4809C17.5991 38.7483 17.1875 37.7548 17.1875 36.7188V32.8125" stroke="#222222" stroke-width="2" stroke-linecap="round" stroke-linejoin="round"/>
<path d="M26.5625 32.8125L34.375 25L26.5625 17.1875M4.6875 25H32.8125" stroke="#222222" stroke-width="2" stroke-linecap="round" stroke-linejoin="round"/>
</svg>
