<svg width="32" height="32" viewBox="0 0 32 32" fill="none" xmlns="http://www.w3.org/2000/svg">
<path d="M4.93359 16.1554C4.62693 16.1554 4.34915 16.1199 4.10026 16.0488C3.85582 15.9732 3.63804 15.8665 3.44693 15.7288C3.25582 15.5865 3.0847 15.4199 2.93359 15.2288L3.62026 14.4488C3.84248 14.7465 4.0647 14.9465 4.28693 15.0488C4.51359 15.151 4.74693 15.2021 4.98693 15.2021C5.10693 15.2021 5.21582 15.1865 5.31359 15.1554C5.41137 15.1243 5.48693 15.0799 5.54026 15.0221C5.59359 14.9599 5.62026 14.8843 5.62026 14.7954C5.62026 14.7288 5.60248 14.6688 5.56693 14.6154C5.53582 14.5621 5.49137 14.5154 5.43359 14.4754C5.37582 14.4354 5.30693 14.3999 5.22693 14.3688C5.14693 14.3332 5.06248 14.3043 4.97359 14.2821C4.8847 14.2554 4.79359 14.2332 4.70026 14.2154C4.44248 14.1577 4.21804 14.0865 4.02693 14.0021C3.83582 13.9177 3.67582 13.8154 3.54693 13.6954C3.42248 13.571 3.32915 13.431 3.26693 13.2754C3.2047 13.1154 3.17359 12.9377 3.17359 12.7421C3.17359 12.5332 3.22026 12.3421 3.31359 12.1688C3.41137 11.991 3.54026 11.8399 3.70026 11.7154C3.8647 11.5865 4.05359 11.4888 4.26693 11.4221C4.48026 11.351 4.70248 11.3154 4.93359 11.3154C5.24026 11.3154 5.50248 11.3488 5.72026 11.4154C5.94248 11.4777 6.13137 11.5688 6.28693 11.6888C6.44693 11.8088 6.58248 11.9532 6.69359 12.1221L5.99359 12.7954C5.90026 12.6799 5.79804 12.5843 5.68693 12.5088C5.58026 12.4332 5.4647 12.3754 5.34026 12.3354C5.22026 12.2954 5.09582 12.2754 4.96693 12.2754C4.83359 12.2754 4.71804 12.2932 4.62026 12.3288C4.52693 12.3599 4.45359 12.4065 4.40026 12.4688C4.34693 12.5265 4.32026 12.5977 4.32026 12.6821C4.32026 12.7577 4.34248 12.8221 4.38693 12.8754C4.43137 12.9288 4.49137 12.9777 4.56693 13.0221C4.64248 13.0621 4.72915 13.0977 4.82693 13.1288C4.9247 13.1554 5.02693 13.1777 5.13359 13.1954C5.37804 13.2443 5.59804 13.3088 5.79359 13.3888C5.99359 13.4688 6.1647 13.5665 6.30693 13.6821C6.45359 13.7977 6.5647 13.9354 6.64026 14.0954C6.72026 14.251 6.76026 14.4332 6.76026 14.6421C6.76026 14.9665 6.68026 15.2421 6.52026 15.4688C6.3647 15.691 6.14915 15.8621 5.87359 15.9821C5.60248 16.0977 5.28915 16.1554 4.93359 16.1554ZM8.8055 16.1488C8.50773 16.1488 8.24106 16.071 8.0055 15.9154C7.77439 15.7554 7.58995 15.5377 7.45217 15.2621C7.31439 14.9821 7.2455 14.6665 7.2455 14.3154C7.2455 13.9554 7.31439 13.6377 7.45217 13.3621C7.58995 13.0865 7.77884 12.871 8.01884 12.7154C8.25884 12.5554 8.53217 12.4754 8.83884 12.4754C9.00773 12.4754 9.16106 12.4999 9.29884 12.5488C9.44106 12.5977 9.5655 12.6665 9.67217 12.7554C9.77884 12.8399 9.86995 12.9399 9.9455 13.0554C10.0211 13.1665 10.0766 13.2865 10.1122 13.4154L9.89217 13.3888V12.5488H10.9522V16.0888H9.87217V15.2354L10.1122 15.2288C10.0766 15.3532 10.0188 15.471 9.93884 15.5821C9.85884 15.6932 9.76106 15.791 9.6455 15.8754C9.52995 15.9599 9.40106 16.0265 9.25884 16.0754C9.11662 16.1243 8.9655 16.1488 8.8055 16.1488ZM9.09884 15.2488C9.26328 15.2488 9.4055 15.211 9.5255 15.1354C9.6455 15.0599 9.73884 14.9532 9.8055 14.8154C9.87217 14.6732 9.9055 14.5065 9.9055 14.3154C9.9055 14.1243 9.87217 13.9599 9.8055 13.8221C9.73884 13.6799 9.6455 13.571 9.5255 13.4954C9.4055 13.4154 9.26328 13.3754 9.09884 13.3754C8.93884 13.3754 8.79884 13.4154 8.67884 13.4954C8.56328 13.571 8.47217 13.6799 8.4055 13.8221C8.33884 13.9599 8.3055 14.1243 8.3055 14.3154C8.3055 14.5065 8.33884 14.6732 8.4055 14.8154C8.47217 14.9532 8.56328 15.0599 8.67884 15.1354C8.79884 15.211 8.93884 15.2488 9.09884 15.2488ZM12.9019 16.0888L11.4219 12.5488H12.6019L13.4819 15.1954L13.2219 15.2221L14.1286 12.5488H15.2953L13.7419 16.0888H12.9019ZM17.4407 16.1554C17.0496 16.1554 16.7096 16.0777 16.4207 15.9221C16.1319 15.7621 15.9074 15.5465 15.7474 15.2754C15.5874 14.9999 15.5074 14.6865 15.5074 14.3354C15.5074 14.0643 15.5519 13.8154 15.6407 13.5888C15.7296 13.3621 15.8541 13.1665 16.0141 13.0021C16.1741 12.8332 16.363 12.7043 16.5807 12.6154C16.803 12.5221 17.0452 12.4754 17.3074 12.4754C17.5563 12.4754 17.783 12.5199 17.9874 12.6088C18.1963 12.6977 18.3763 12.8221 18.5274 12.9821C18.6785 13.1421 18.7941 13.331 18.8741 13.5488C18.9541 13.7665 18.9896 14.0043 18.9807 14.2621L18.9741 14.5488H16.1541L16.0007 13.9488H18.1074L17.9941 14.0754V13.9421C17.9852 13.831 17.9496 13.7332 17.8874 13.6488C17.8296 13.5599 17.7519 13.491 17.6541 13.4421C17.5563 13.3932 17.4452 13.3688 17.3207 13.3688C17.1474 13.3688 16.9985 13.4043 16.8741 13.4754C16.7541 13.5421 16.663 13.6421 16.6007 13.7754C16.5385 13.9043 16.5074 14.0643 16.5074 14.2554C16.5074 14.451 16.5474 14.6221 16.6274 14.7688C16.7119 14.911 16.8319 15.0221 16.9874 15.1021C17.1474 15.1821 17.3363 15.2221 17.5541 15.2221C17.7052 15.2221 17.8385 15.1999 17.9541 15.1554C18.0741 15.111 18.203 15.0354 18.3407 14.9288L18.8407 15.6354C18.703 15.7554 18.5563 15.8532 18.4007 15.9288C18.2452 16.0043 18.0852 16.0599 17.9207 16.0954C17.7607 16.1354 17.6007 16.1554 17.4407 16.1554ZM19.7736 16.0888V11.4221H20.787L22.487 14.1888L21.7603 14.1821L23.4803 11.4221H24.4536V16.0888H23.3536V14.6354C23.3536 14.2354 23.3625 13.8754 23.3803 13.5554C23.4025 13.2354 23.4381 12.9177 23.487 12.6021L23.6136 12.9488L22.3203 14.9554H21.8803L20.6136 12.9621L20.7403 12.6021C20.7892 12.8999 20.8225 13.2065 20.8403 13.5221C20.8625 13.8332 20.8736 14.2043 20.8736 14.6354V16.0888H19.7736ZM25.9599 17.6221L26.7665 15.7221L26.7799 16.2688L25.0732 12.5488H26.2799L27.0265 14.3288C27.0665 14.4177 27.1043 14.5132 27.1399 14.6154C27.1754 14.7177 27.2021 14.8154 27.2199 14.9088L27.0732 14.9954C27.0999 14.9288 27.1287 14.8465 27.1599 14.7488C27.1954 14.6465 27.2332 14.5377 27.2732 14.4221L27.9265 12.5488H29.1399L27.6332 16.0888L27.0199 17.6221H25.9599Z" fill="#333333"/>
<path d="M3.38672 20.8888V16.2222H6.64005V17.1888H4.48672V19.9222H6.70672V20.8888H3.38672ZM3.92005 18.9755V18.0555H6.34005V18.9755H3.92005ZM8.55925 20.8888L7.07925 17.3488H8.25925L9.13925 19.9955L8.87925 20.0222L9.78592 17.3488H10.9526L9.39925 20.8888H8.55925ZM13.0981 20.9555C12.7069 20.9555 12.3669 20.8777 12.0781 20.7222C11.7892 20.5622 11.5647 20.3466 11.4047 20.0755C11.2447 19.7999 11.1647 19.4866 11.1647 19.1355C11.1647 18.8644 11.2092 18.6155 11.2981 18.3888C11.3869 18.1622 11.5114 17.9666 11.6714 17.8022C11.8314 17.6333 12.0203 17.5044 12.2381 17.4155C12.4603 17.3222 12.7025 17.2755 12.9647 17.2755C13.2136 17.2755 13.4403 17.3199 13.6447 17.4088C13.8536 17.4977 14.0336 17.6222 14.1847 17.7822C14.3358 17.9422 14.4514 18.1311 14.5314 18.3488C14.6114 18.5666 14.6469 18.8044 14.6381 19.0622L14.6314 19.3488H11.8114L11.6581 18.7488H13.7647L13.6514 18.8755V18.7422C13.6425 18.6311 13.6069 18.5333 13.5447 18.4488C13.4869 18.3599 13.4092 18.2911 13.3114 18.2422C13.2136 18.1933 13.1025 18.1688 12.9781 18.1688C12.8047 18.1688 12.6558 18.2044 12.5314 18.2755C12.4114 18.3422 12.3203 18.4422 12.2581 18.5755C12.1958 18.7044 12.1647 18.8644 12.1647 19.0555C12.1647 19.2511 12.2047 19.4222 12.2847 19.5688C12.3692 19.7111 12.4892 19.8222 12.6447 19.9022C12.8047 19.9822 12.9936 20.0222 13.2114 20.0222C13.3625 20.0222 13.4958 19.9999 13.6114 19.9555C13.7314 19.9111 13.8603 19.8355 13.9981 19.7288L14.4981 20.4355C14.3603 20.5555 14.2136 20.6533 14.0581 20.7288C13.9025 20.8044 13.7425 20.8599 13.5781 20.8955C13.4181 20.9355 13.2581 20.9555 13.0981 20.9555ZM15.3177 20.8888V17.3488H16.331L16.3643 18.0688L16.151 18.1488C16.1999 17.9888 16.2865 17.8444 16.411 17.7155C16.5399 17.5822 16.6932 17.4755 16.871 17.3955C17.0488 17.3155 17.2354 17.2755 17.431 17.2755C17.6977 17.2755 17.9221 17.3311 18.1043 17.4422C18.2865 17.5488 18.4243 17.7111 18.5177 17.9288C18.611 18.1422 18.6577 18.4044 18.6577 18.7155V20.8888H17.5843V18.8022C17.5843 18.6599 17.5643 18.5422 17.5243 18.4488C17.4843 18.3555 17.4221 18.2866 17.3377 18.2422C17.2577 18.1933 17.1577 18.1711 17.0377 18.1755C16.9443 18.1755 16.8577 18.1911 16.7777 18.2222C16.6977 18.2488 16.6288 18.2911 16.571 18.3488C16.5132 18.4022 16.4665 18.4644 16.431 18.5355C16.3999 18.6066 16.3843 18.6844 16.3843 18.7688V20.8888H15.8577C15.7332 20.8888 15.6265 20.8888 15.5377 20.8888C15.4488 20.8888 15.3754 20.8888 15.3177 20.8888ZM19.8428 20.8888V16.4555H20.9094V20.8888H19.8428ZM19.2161 18.2822V17.3488H21.5961V18.2822H19.2161Z" fill="#333333"/>
</svg>
