<svg width="48" height="48" viewBox="0 0 48 48" fill="none" xmlns="http://www.w3.org/2000/svg">
<g clip-path="url(#clip0_253_163)">
<path d="M44 24H46M24 4V2M24 46V44M40 40L38 38M40 8L38 10M8 40L10 38M8 8L10 10M2 24H4M19.904 19.246L23.022 12.636C23.106 12.4467 23.2431 12.2859 23.4167 12.173C23.5903 12.0602 23.7929 12.0001 24 12.0001C24.2071 12.0001 24.4097 12.0602 24.5833 12.173C24.7569 12.2859 24.894 12.4467 24.978 12.636L28.096 19.246L35.066 20.312C35.96 20.448 36.316 21.6 35.67 22.26L30.626 27.4L31.816 34.662C31.97 35.596 31.034 36.306 30.234 35.866L24 32.436L17.766 35.866C16.966 36.306 16.03 35.596 16.184 34.662L17.374 27.402L12.33 22.26C11.684 21.6 12.04 20.448 12.934 20.312L19.904 19.246Z" stroke="#333333" stroke-width="3" stroke-linecap="round" stroke-linejoin="round"/>
</g>
<defs>
<clipPath id="clip0_253_163">
<rect width="48" height="48" fill="white"/>
</clipPath>
</defs>
</svg>
