<svg width="30" height="30" viewBox="0 0 30 30" fill="none" xmlns="http://www.w3.org/2000/svg">
<path d="M25.3125 5.85938H4.68752C4.2524 5.85938 3.8351 6.03223 3.52743 6.3399C3.21975 6.64758 3.0469 7.06488 3.0469 7.5V26.25C3.0452 26.5628 3.13373 26.8694 3.30188 27.1332C3.47003 27.397 3.71066 27.6066 3.99495 27.7371C4.21197 27.8378 4.44827 27.8902 4.68752 27.8906C5.07402 27.8908 5.44795 27.7533 5.74221 27.5027L5.74924 27.4969L9.63635 24.1406H25.3125C25.7476 24.1406 26.1649 23.9678 26.4726 23.6601C26.7803 23.3524 26.9531 22.9351 26.9531 22.5V7.5C26.9531 7.06488 26.7803 6.64758 26.4726 6.3399C26.1649 6.03223 25.7476 5.85938 25.3125 5.85938ZM25.5469 22.5C25.5469 22.5622 25.5222 22.6218 25.4783 22.6657C25.4343 22.7097 25.3747 22.7344 25.3125 22.7344H9.37502C9.20633 22.7345 9.04329 22.7952 8.91565 22.9055L4.83518 26.4293C4.80097 26.4571 4.75963 26.4746 4.71589 26.4799C4.67216 26.4853 4.62781 26.4782 4.58793 26.4595C4.54805 26.4407 4.51425 26.4112 4.49041 26.3741C4.46657 26.3371 4.45366 26.2941 4.45315 26.25V7.5C4.45315 7.43784 4.47784 7.37823 4.5218 7.33427C4.56575 7.29032 4.62536 7.26562 4.68752 7.26562H25.3125C25.3747 7.26562 25.4343 7.29032 25.4783 7.33427C25.5222 7.37823 25.5469 7.43784 25.5469 7.5V22.5Z" fill="#333333"/>
</svg>
