<svg width="30" height="30" viewBox="0 0 30 30" fill="none" xmlns="http://www.w3.org/2000/svg">
<path d="M15 3C15.2983 3 15.5845 3.11853 15.7955 3.3295C16.0065 3.54048 16.125 3.82663 16.125 4.125V12.51L19.05 9.36C19.2529 9.1412 19.5344 9.01195 19.8326 9.0007C20.1307 8.98945 20.4212 9.09711 20.64 9.3C20.8588 9.50289 20.988 9.78439 20.9993 10.0826C21.0105 10.3808 20.9029 10.6712 20.7 10.89L15.825 16.14C15.7197 16.2536 15.592 16.3442 15.4501 16.4062C15.3081 16.4682 15.1549 16.5001 15 16.5001C14.8451 16.5001 14.6918 16.4682 14.5499 16.4062C14.4079 16.3442 14.2803 16.2536 14.175 16.14L9.29998 10.89C9.19952 10.7817 9.12138 10.6546 9.07002 10.5161C9.01867 10.3775 8.99511 10.2302 9.00068 10.0826C9.00625 9.93493 9.04085 9.78983 9.1025 9.65555C9.16415 9.52128 9.25164 9.40046 9.35998 9.3C9.46832 9.19954 9.59539 9.1214 9.73392 9.07005C9.87246 9.01869 10.0198 8.99513 10.1674 9.0007C10.315 9.00627 10.4602 9.04087 10.5944 9.10252C10.7287 9.16417 10.8495 9.25166 10.95 9.36L13.875 12.51V4.125C13.875 3.82663 13.9935 3.54048 14.2045 3.3295C14.4155 3.11853 14.7016 3 15 3Z" fill="#333333"/>
<path d="M7.9095 6.75C7.49903 6.75003 7.09991 6.88476 6.7734 7.13351C6.44689 7.38225 6.21102 7.73127 6.102 8.127L3.8175 16.407L3.795 16.5H9C9.27849 16.5001 9.55145 16.5778 9.78829 16.7243C10.0251 16.8708 10.2165 17.0804 10.341 17.3295L11.013 18.6705C11.1375 18.9196 11.3289 19.1292 11.5657 19.2757C11.8026 19.4222 12.0755 19.4999 12.354 19.5H17.511C17.7713 19.5 18.0271 19.4322 18.2533 19.3033C18.4795 19.1744 18.6682 18.9889 18.801 18.765L19.71 17.235C19.8428 17.0111 20.0315 16.8256 20.2577 16.6967C20.4839 16.5678 20.7397 16.5 21 16.5H26.205L26.1825 16.407L23.898 8.127C23.789 7.73127 23.5531 7.38225 23.2266 7.13351C22.9001 6.88476 22.501 6.75003 22.0905 6.75H20.625C20.3266 6.75 20.0405 6.63147 19.8295 6.4205C19.6185 6.20952 19.5 5.92337 19.5 5.625C19.5 5.32663 19.6185 5.04048 19.8295 4.8295C20.0405 4.61853 20.3266 4.5 20.625 4.5H22.0905C22.9934 4.50002 23.8714 4.79629 24.5897 5.34336C25.308 5.89043 25.827 6.65807 26.067 7.5285L28.3515 15.8085C28.4505 16.1685 28.5 16.5345 28.5 16.9065V22.5C28.5 23.2956 28.1839 24.0587 27.6213 24.6213C27.0587 25.1839 26.2956 25.5 25.5 25.5H4.5C3.70435 25.5 2.94129 25.1839 2.37868 24.6213C1.81607 24.0587 1.5 23.2956 1.5 22.5V16.905C1.5 16.534 1.5495 16.169 1.6485 15.81L3.933 7.5285C4.17301 6.65807 4.69199 5.89043 5.4103 5.34336C6.12861 4.79629 7.00658 4.50002 7.9095 4.5H9.375C9.67337 4.5 9.95952 4.61853 10.1705 4.8295C10.3815 5.04048 10.5 5.32663 10.5 5.625C10.5 5.92337 10.3815 6.20952 10.1705 6.4205C9.95952 6.63147 9.67337 6.75 9.375 6.75H7.9095Z" fill="#333333"/>
</svg>
