<svg width="30" height="30" viewBox="0 0 30 30" fill="none" xmlns="http://www.w3.org/2000/svg">
<path d="M19.0475 13.5125L18.3362 15.63C18.0718 16.4346 17.6222 17.1659 17.0237 17.7651C16.4251 18.3643 15.6943 18.8147 14.89 19.08L12.7487 19.7912C12.6764 19.8147 12.6133 19.8605 12.5685 19.922C12.5237 19.9835 12.4996 20.0577 12.4996 20.1337C12.4996 20.2098 12.5237 20.284 12.5685 20.3455C12.6133 20.407 12.6764 20.4528 12.7487 20.4762L14.89 21.1875C15.687 21.4527 16.4111 21.9001 17.0048 22.4943C17.5985 23.0884 18.0454 23.8128 18.31 24.61L19.02 26.7537C19.0428 26.8268 19.0883 26.8906 19.1499 26.936C19.2115 26.9813 19.286 27.0057 19.3625 27.0057C19.439 27.0057 19.5135 26.9813 19.5751 26.936C19.6367 26.8906 19.6822 26.8268 19.705 26.7537L20.4425 24.6362C20.707 23.8392 21.1537 23.1149 21.7472 22.5208C22.3407 21.9266 23.0645 21.4791 23.8612 21.2137L26.0037 20.5025C26.0761 20.4791 26.1392 20.4333 26.184 20.3718C26.2288 20.3102 26.2529 20.2361 26.2529 20.16C26.2529 20.0839 26.2288 20.0098 26.184 19.9482C26.1392 19.8867 26.0761 19.8409 26.0037 19.8175L23.8887 19.08C23.084 18.8156 22.3527 18.3655 21.754 17.7662C21.1553 17.1668 20.7061 16.4351 20.4425 15.63L19.7312 13.4862C19.7111 13.4335 19.6788 13.3861 19.6371 13.348C19.5953 13.3099 19.5452 13.2821 19.4908 13.2668C19.4364 13.2515 19.3792 13.2491 19.3237 13.2599C19.2682 13.2706 19.216 13.2942 19.1712 13.3287C19.1122 13.3765 19.0691 13.4397 19.0475 13.5125ZM8.51 7.37125L7.99375 8.91C7.80118 9.49517 7.47399 10.027 7.03849 10.4627C6.60299 10.8984 6.07133 11.2259 5.48625 11.4187L3.92875 11.9362C3.87668 11.9538 3.83144 11.9872 3.79938 12.0319C3.76733 12.0765 3.75009 12.1301 3.75009 12.185C3.75009 12.2399 3.76733 12.2935 3.79938 12.3381C3.83144 12.3828 3.87668 12.4162 3.92875 12.4337L5.48625 12.9525C6.06581 13.145 6.59245 13.4701 7.02428 13.902C7.45612 14.3338 7.78122 14.8604 7.97375 15.44L8.49 17C8.50755 17.0521 8.54099 17.0973 8.58562 17.1294C8.63025 17.1614 8.6838 17.1787 8.73875 17.1787C8.79369 17.1787 8.84725 17.1614 8.89188 17.1294C8.9365 17.0973 8.96995 17.0521 8.9875 17L9.525 15.46C9.71839 14.8809 10.0438 14.3547 10.4755 13.923C10.9072 13.4913 11.4334 13.1659 12.0125 12.9725L13.5687 12.4537C13.6208 12.4362 13.6661 12.4028 13.6981 12.3581C13.7302 12.3135 13.7474 12.2599 13.7474 12.205C13.7474 12.1501 13.7302 12.0965 13.6981 12.0519C13.6661 12.0072 13.6208 11.9738 13.5687 11.9562L12.0312 11.4187C11.4459 11.2266 10.914 10.8994 10.4787 10.4635C10.0433 10.0277 9.71656 9.49551 9.525 8.91L9.0075 7.35125C8.98796 7.29978 8.95273 7.25576 8.9068 7.22541C8.86087 7.19506 8.80656 7.17992 8.75155 7.18214C8.69654 7.18435 8.64362 7.2038 8.60027 7.23773C8.55693 7.27167 8.52535 7.31838 8.51 7.37125ZM18.3212 3.09375L18.0625 3.86375C17.9669 4.15655 17.8037 4.42273 17.5861 4.64076C17.3685 4.85878 17.1026 5.02253 16.81 5.11875L16.0312 5.3775C16.0117 5.38384 15.994 5.3947 15.9795 5.40921C15.965 5.42371 15.9542 5.44144 15.9478 5.46094C15.9415 5.48045 15.9398 5.50117 15.943 5.52143C15.9462 5.54169 15.9542 5.5609 15.9662 5.5775C15.9819 5.60053 16.0048 5.61769 16.0312 5.62625L16.81 5.885C17.0998 5.98126 17.3631 6.14381 17.579 6.35973C17.7949 6.57564 17.9575 6.83897 18.0537 7.12875L18.3112 7.90875C18.3197 7.93524 18.3364 7.95835 18.3589 7.97474C18.3813 7.99114 18.4084 7.99998 18.4362 7.99998C18.4641 7.99998 18.4912 7.99114 18.5136 7.97474C18.5361 7.95835 18.5528 7.93524 18.5612 7.90875L18.8287 7.13875C18.925 6.84896 19.0876 6.58564 19.3035 6.36973C19.5194 6.15381 19.7827 5.99126 20.0725 5.895L20.8512 5.63625C20.8777 5.62776 20.9008 5.61109 20.9172 5.58862C20.9336 5.56615 20.9425 5.53906 20.9425 5.51125C20.9425 5.48343 20.9336 5.45634 20.9172 5.43387C20.9008 5.4114 20.8777 5.39473 20.8512 5.38625L20.0825 5.11875C19.7897 5.0227 19.5235 4.85903 19.3057 4.64099C19.0879 4.42296 18.9245 4.15669 18.8287 3.86375L18.57 3.08375C18.5602 3.05801 18.5426 3.036 18.5196 3.02083C18.4967 3.00565 18.4695 2.99808 18.442 2.99919C18.4145 3.0003 18.3881 3.01002 18.3664 3.02699C18.3447 3.04396 18.3289 3.06731 18.3212 3.09375Z" stroke="#333333" stroke-width="1.5" stroke-linecap="round" stroke-linejoin="round"/>
</svg>
