<svg width="30" height="30" viewBox="0 0 30 30" fill="none" xmlns="http://www.w3.org/2000/svg">
<path d="M27.1725 20.1625C27.1789 20.4358 27.0954 20.7037 26.935 20.925C26.7767 21.1507 26.5481 21.3177 26.285 21.4L24.1475 22.1125C23.4891 22.3312 22.8902 22.6991 22.3975 23.1875C21.9054 23.6773 21.5369 24.2772 21.3225 24.9375L20.5725 27.0625C20.4944 27.3176 20.3367 27.541 20.1225 27.7C19.8939 27.8553 19.6239 27.938 19.3475 27.9375C19.0702 27.9494 18.7968 27.8686 18.5705 27.7079C18.3442 27.5472 18.1778 27.3157 18.0975 27.05L17.385 24.9125C17.1706 24.2522 16.8021 23.6523 16.31 23.1625C15.8133 22.6763 15.2159 22.3051 14.56 22.075L12.4225 21.375C12.1695 21.2863 11.9479 21.1255 11.785 20.9125C11.6209 20.6868 11.5293 20.4165 11.5225 20.1375C11.5107 19.8602 11.5915 19.5868 11.7522 19.3605C11.9128 19.1342 12.1443 18.9678 12.41 18.8875L14.56 18.175C15.2268 17.9596 15.8329 17.5888 16.3283 17.0933C16.8238 16.5979 17.1946 15.9918 17.41 15.325L18.1225 13.2125C18.1954 12.9526 18.3504 12.7232 18.5645 12.5587C18.7785 12.3943 19.0401 12.3035 19.31 12.3C19.5788 12.3 19.8425 12.3738 20.0725 12.5125C20.3 12.6688 20.475 12.8913 20.5725 13.15L21.2975 15.325C21.513 15.9918 21.8837 16.5979 22.3792 17.0933C22.8747 17.5888 23.4808 17.9596 24.1475 18.175L26.2725 18.925C26.531 19.0098 26.7549 19.1765 26.91 19.4C27.0794 19.6182 27.1717 19.8863 27.1725 20.1625ZM14.6738 12.2125C14.6719 12.4576 14.598 12.6966 14.4613 12.9C14.3135 13.1012 14.1089 13.2536 13.8738 13.3375L12.2988 13.8625C11.8575 14.015 11.4575 14.2625 11.1238 14.5875C10.7975 14.9202 10.5498 15.3217 10.3988 15.7625L9.86127 17.3125C9.78506 17.5517 9.63106 17.7585 9.42377 17.9C9.21827 18.0435 8.97439 18.1219 8.72377 18.125C8.46754 18.1208 8.21881 18.0379 8.01127 17.8875C7.81467 17.738 7.66678 17.5335 7.58627 17.3L7.07377 15.7375C6.92339 15.3001 6.67547 14.9025 6.34877 14.575C6.02864 14.2392 5.62873 13.9897 5.18627 13.85L3.62377 13.325C3.38132 13.2487 3.17056 13.095 3.02377 12.8875C2.92427 12.7317 2.86058 12.5557 2.83729 12.3723C2.814 12.1889 2.83168 12.0026 2.88907 11.8268C2.94647 11.6511 3.04213 11.4902 3.16917 11.3559C3.29622 11.2216 3.45148 11.1171 3.62377 11.05L5.18627 10.5375C5.62839 10.3831 6.02998 10.131 6.36112 9.79986C6.69225 9.46873 6.9444 9.06714 7.09877 8.62502L7.61127 7.08752C7.68495 6.85711 7.8239 6.65302 8.01127 6.50002C8.21038 6.34999 8.4498 6.26293 8.69877 6.25002C8.95101 6.24324 9.1994 6.31297 9.41127 6.45002C9.61979 6.59078 9.78098 6.79118 9.87377 7.02502L10.3988 8.62502C10.5531 9.06714 10.8053 9.46873 11.1364 9.79986C11.4676 10.131 11.8692 10.3831 12.3113 10.5375L13.8738 11.075C14.1075 11.1553 14.3091 11.3087 14.4488 11.5125C14.5967 11.7158 14.6756 11.9611 14.6738 12.2125ZM21.91 5.51252C21.8987 5.74043 21.8252 5.9609 21.6975 6.15002C21.5674 6.32827 21.3833 6.45979 21.1725 6.52502L20.3975 6.78752C20.247 6.83948 20.1102 6.925 19.9976 7.03761C19.885 7.15022 19.7995 7.28697 19.7475 7.43752L19.4725 8.22502C19.397 8.41678 19.2719 8.58502 19.11 8.71252C18.9257 8.86015 18.6961 8.93963 18.46 8.93752C18.2439 8.92411 18.0341 8.85987 17.8475 8.75002C17.6606 8.61234 17.5209 8.42023 17.4475 8.20002L17.185 7.42502C17.1399 7.27132 17.0534 7.13295 16.935 7.02502C16.8248 6.90938 16.6873 6.8234 16.535 6.77502L15.76 6.52502C15.5538 6.44461 15.3726 6.31089 15.235 6.13752C15.1053 5.95018 15.0356 5.72787 15.035 5.50002C15.0423 5.27136 15.1161 5.0498 15.2475 4.86252C15.3822 4.68894 15.5647 4.55858 15.7725 4.48752L16.535 4.23752C16.689 4.18499 16.8297 4.0997 16.9475 3.98752C17.0597 3.86971 17.145 3.72898 17.1975 3.57502L17.46 2.80002C17.535 2.60627 17.6538 2.43502 17.81 2.30002C17.9894 2.16766 18.2008 2.08566 18.4225 2.06252C18.6584 2.06117 18.8893 2.13086 19.085 2.26252C19.2612 2.39508 19.3992 2.5719 19.485 2.77502L19.7475 3.57502C19.8001 3.72898 19.8853 3.86971 19.9975 3.98752C20.1138 4.09548 20.2495 4.18033 20.3975 4.23752L21.185 4.50002C21.3853 4.57882 21.5618 4.70799 21.6975 4.87502C21.8339 5.05976 21.9083 5.28291 21.91 5.51252Z" fill="#333333"/>
</svg>
