<svg width="30" height="30" viewBox="0 0 30 30" fill="none" xmlns="http://www.w3.org/2000/svg">
<path d="M13.25 17.615L10.13 14.495C10.0133 14.3783 9.87 14.3158 9.7 14.3075C9.53 14.2992 9.37833 14.3617 9.245 14.495C9.11167 14.6283 9.045 14.7758 9.045 14.9375C9.045 15.0992 9.11167 15.2467 9.245 15.38L12.5437 18.6775C12.7454 18.88 12.9808 18.9813 13.25 18.9813C13.5192 18.9813 13.755 18.88 13.9575 18.6775L20.8025 11.8325C20.9192 11.715 20.9817 11.5713 20.99 11.4013C20.9983 11.2313 20.9358 11.08 20.8025 10.9475C20.6692 10.815 20.5221 10.7483 20.3612 10.7475C20.2004 10.7467 20.0525 10.8133 19.9175 10.9475L13.25 17.615ZM7.02 25C6.44417 25 5.96375 24.8075 5.57875 24.4225C5.19375 24.0375 5.00083 23.5567 5 22.98V7.02C5 6.44417 5.19292 5.96375 5.57875 5.57875C5.96458 5.19375 6.445 5.00083 7.02 5H22.9813C23.5563 5 24.0367 5.19292 24.4225 5.57875C24.8083 5.96458 25.0008 6.445 25 7.02V22.9813C25 23.5563 24.8075 24.0367 24.4225 24.4225C24.0375 24.8083 23.5567 25.0008 22.98 25H7.02ZM7.02 23.75H22.9813C23.1729 23.75 23.3492 23.67 23.51 23.51C23.6708 23.35 23.7508 23.1733 23.75 22.98V7.02C23.75 6.8275 23.67 6.65083 23.51 6.49C23.35 6.32917 23.1733 6.24917 22.98 6.25H7.02C6.8275 6.25 6.65083 6.33 6.49 6.49C6.32917 6.65 6.24917 6.82667 6.25 7.02V22.9813C6.25 23.1729 6.33 23.3492 6.49 23.51C6.65 23.6708 6.82625 23.7508 7.01875 23.75" fill="#333333"/>
</svg>
