<svg width="49" height="48" viewBox="0 0 49 48" fill="none" xmlns="http://www.w3.org/2000/svg">
<path d="M18.3333 3C12.5508 3 7.83325 7.7175 7.83325 13.5C7.83325 17.115 9.67825 20.325 12.4743 22.2195C7.12375 24.5145 3.33325 29.8245 3.33325 36H6.33325C6.33325 29.355 11.6883 24 18.3333 24C20.3958 24 22.3173 24.54 24.0048 25.4535C22.2767 27.5891 21.3337 30.2529 21.3333 33C21.3333 39.609 26.7243 45 33.3333 45C39.9423 45 45.3333 39.609 45.3333 33C45.3333 26.391 39.9423 21 33.3333 21C30.8052 21.0018 28.343 21.8059 26.3013 23.2965C25.6278 22.882 24.9226 22.5213 24.1923 22.218C25.6196 21.255 26.7891 19.9568 27.5982 18.4369C28.4074 16.917 28.8314 15.2218 28.8333 13.5C28.8333 7.7175 24.1158 3 18.3333 3ZM18.3333 6C22.4928 6 25.8333 9.3405 25.8333 13.5C25.8333 17.6595 22.4928 21 18.3333 21C14.1738 21 10.8333 17.6595 10.8333 13.5C10.8333 9.3405 14.1738 6 18.3333 6ZM33.3333 24C38.3193 24 42.3333 28.014 42.3333 33C42.3333 37.986 38.3193 42 33.3333 42C28.3473 42 24.3333 37.986 24.3333 33C24.3333 28.014 28.3473 24 33.3333 24ZM38.2548 28.9215L33.3333 33.8445L29.9118 30.4215L27.7548 32.5785L32.2548 37.0785L33.3333 38.109L34.4118 37.0785L40.4118 31.0785L38.2548 28.9215Z" fill="#333333"/>
</svg>
