<svg width="30" height="30" viewBox="0 0 30 30" fill="none" xmlns="http://www.w3.org/2000/svg">
<path d="M27.1726 20.1625C27.1789 20.4358 27.0955 20.7037 26.9351 20.925C26.7767 21.1507 26.5482 21.3177 26.2851 21.4L24.1476 22.1125C23.4892 22.3312 22.8903 22.6991 22.3976 23.1875C21.9055 23.6773 21.537 24.2772 21.3226 24.9375L20.5726 27.0625C20.4945 27.3176 20.3368 27.541 20.1226 27.7C19.894 27.8553 19.6239 27.938 19.3476 27.9375C19.0703 27.9494 18.7969 27.8686 18.5706 27.7079C18.3442 27.5472 18.1778 27.3157 18.0976 27.05L17.3851 24.9125C17.1707 24.2522 16.8022 23.6523 16.3101 23.1625C15.8133 22.6763 15.216 22.3051 14.5601 22.075L12.4226 21.375C12.1695 21.2863 11.9479 21.1255 11.7851 20.9125C11.621 20.6868 11.5294 20.4165 11.5226 20.1375C11.5107 19.8602 11.5915 19.5868 11.7522 19.3605C11.9129 19.1342 12.1444 18.9678 12.4101 18.8875L14.5601 18.175C15.2269 17.9596 15.8329 17.5888 16.3284 17.0933C16.8239 16.5979 17.1946 15.9918 17.4101 15.325L18.1226 13.2125C18.1954 12.9526 18.3505 12.7232 18.5646 12.5587C18.7786 12.3943 19.0402 12.3035 19.3101 12.3C19.5788 12.3 19.8426 12.3738 20.0726 12.5125C20.3001 12.6688 20.4751 12.8913 20.5726 13.15L21.2976 15.325C21.513 15.9918 21.8838 16.5979 22.3793 17.0933C22.8747 17.5888 23.4808 17.9596 24.1476 18.175L26.2726 18.925C26.5311 19.0098 26.7549 19.1765 26.9101 19.4C27.0794 19.6182 27.1717 19.8863 27.1726 20.1625ZM14.6738 12.2125C14.6719 12.4576 14.598 12.6966 14.4613 12.9C14.3136 13.1012 14.109 13.2536 13.8738 13.3375L12.2988 13.8625C11.8576 14.015 11.4576 14.2625 11.1238 14.5875C10.7976 14.9202 10.5499 15.3217 10.3988 15.7625L9.86133 17.3125C9.78512 17.5517 9.63112 17.7585 9.42383 17.9C9.21833 18.0435 8.97445 18.1219 8.72383 18.125C8.4676 18.1208 8.21887 18.0379 8.01133 17.8875C7.81473 17.738 7.66684 17.5335 7.58633 17.3L7.07383 15.7375C6.92345 15.3001 6.67553 14.9025 6.34883 14.575C6.0287 14.2392 5.62879 13.9897 5.18633 13.85L3.62383 13.325C3.38138 13.2487 3.17062 13.095 3.02383 12.8875C2.92433 12.7317 2.86064 12.5557 2.83735 12.3723C2.81406 12.1889 2.83175 12.0026 2.88914 11.8268C2.94653 11.6511 3.04219 11.4902 3.16924 11.3559C3.29628 11.2216 3.45154 11.1171 3.62383 11.05L5.18633 10.5375C5.62845 10.3831 6.03004 10.131 6.36118 9.79986C6.69231 9.46873 6.94446 9.06714 7.09883 8.62502L7.61133 7.08752C7.68501 6.85711 7.82396 6.65302 8.01133 6.50002C8.21044 6.34999 8.44986 6.26293 8.69883 6.25002C8.95108 6.24324 9.19946 6.31297 9.41133 6.45002C9.61985 6.59078 9.78104 6.79118 9.87383 7.02502L10.3988 8.62502C10.5532 9.06714 10.8054 9.46873 11.1365 9.79986C11.4676 10.131 11.8692 10.3831 12.3113 10.5375L13.8738 11.075C14.1075 11.1553 14.3091 11.3087 14.4488 11.5125C14.5968 11.7158 14.6757 11.9611 14.6738 12.2125ZM21.9101 5.51252C21.8988 5.74043 21.8253 5.9609 21.6976 6.15002C21.5675 6.32827 21.3834 6.45979 21.1726 6.52502L20.3976 6.78752C20.247 6.83948 20.1103 6.925 19.9977 7.03761C19.8851 7.15022 19.7995 7.28697 19.7476 7.43752L19.4726 8.22502C19.3971 8.41678 19.272 8.58502 19.1101 8.71252C18.9258 8.86015 18.6962 8.93963 18.4601 8.93752C18.244 8.92411 18.0341 8.85987 17.8476 8.75002C17.6607 8.61234 17.521 8.42023 17.4476 8.20002L17.1851 7.42502C17.1399 7.27131 17.0535 7.13295 16.9351 7.02502C16.8249 6.90938 16.6873 6.8234 16.5351 6.77502L15.7601 6.52502C15.5539 6.44461 15.3727 6.31089 15.2351 6.13752C15.1054 5.95018 15.0357 5.72787 15.0351 5.50002C15.0423 5.27136 15.1162 5.0498 15.2476 4.86252C15.3822 4.68894 15.5647 4.55858 15.7726 4.48752L16.5351 4.23752C16.689 4.18499 16.8298 4.0997 16.9476 3.98752C17.0598 3.86971 17.1451 3.72898 17.1976 3.57502L17.4601 2.80002C17.5351 2.60627 17.6538 2.43502 17.8101 2.30002C17.9894 2.16766 18.2009 2.08566 18.4226 2.06252C18.6585 2.06117 18.8893 2.13086 19.0851 2.26252C19.2613 2.39508 19.3993 2.5719 19.4851 2.77502L19.7476 3.57502C19.8001 3.72898 19.8854 3.86971 19.9976 3.98752C20.1138 4.09548 20.2496 4.18033 20.3976 4.23752L21.1851 4.50002C21.3853 4.57882 21.5619 4.70799 21.6976 4.87502C21.8339 5.05976 21.9083 5.28291 21.9101 5.51252Z" fill="#333333"/>
</svg>
